<?xml version="1.0" encoding="utf-8"?>
<svg viewBox="88.965 26.481 110.086 232.779" xmlns="http://www.w3.org/2000/svg">
  <path fill="#b7e8ef" d="M 16.293 6.086 L 12.707 2.5 C 12.317 2.109 11.684 2.109 11.293 2.5 L 7.707 6.086 C 7.163 6.63 7.412 7.56 8.156 7.759 C 8.24 7.781 8.327 7.793 8.414 7.793 L 10 7.793 C 10.276 7.793 11.914 7.641 11.862 7.887 L 11.8 20.914 C 11.8 21.466 11.901 21.546 12.199 21.598 L 12.193 21.605 C 12.745 21.605 12.644 21.313 12.644 20.761 L 12.623 7.921 C 12.623 7.645 13.724 7.793 14 7.793 L 15.586 7.793 C 16.356 7.793 16.837 6.959 16.452 6.293 C 16.408 6.217 16.355 6.148 16.293 6.086 Z" classname="color000 svgShape" transform="matrix(12, 0, 0, 12, 0, 0)"/>
</svg>