<svg xmlns="http://www.w3.org/2000/svg" width="48" height="48" viewBox="0 0 48 48">
  <g id="ic_weather_43" transform="translate(476 587)">
    <rect id="Rectangle_7" data-name="Rectangle 7" width="48" height="48" transform="translate(-476 -587)" fill="#ffd2d2" opacity="0"/>
    <g id="Group_57" data-name="Group 57" transform="translate(26.18 -15.52)">
      <path id="Path_186" data-name="Path 186" d="M394.46,971.7c0,4.45-4,8.07-8.8,8.07H363.53a8.8,8.8,0,0,1-8.73-7.58,7.9,7.9,0,0,1-.08-1.18,8.79,8.79,0,0,1,8.81-8.75,8.679,8.679,0,0,1,3.61.77c.31-4.2,4.14-7.51,8.79-7.51a9.282,9.282,0,0,1,3.33.61,8.09,8.09,0,0,1,5.47,7.46v.1a8.909,8.909,0,0,1,.91,0,9.28,9.28,0,0,1,5.48,1.75,8,8,0,0,1,1.59,1.51,7.6,7.6,0,0,1,1.75,4.75Z" transform="translate(-852.9 -1522)" fill="none" stroke="#6d6e71" stroke-linecap="round" stroke-linejoin="round" stroke-width="2"/>
      <line id="Line_289" data-name="Line 289" x2="1.66" y2="9.39" transform="translate(-473.03 -540.85)" fill="none" stroke="#6d6e71" stroke-linecap="round" stroke-linejoin="round" stroke-width="2"/>
      <path id="Path_187" data-name="Path 187" d="M326.13,982.53l1.24,1.04.85-1.49" transform="translate(-800 -1522)" fill="none" stroke="#6d6e71" stroke-linecap="round" stroke-linejoin="round" stroke-width="2"/>
      <path id="Path_188" data-name="Path 188" d="M327.4,989.71l.8-1.46,1.3,1.06" transform="translate(-800 -1522)" fill="none" stroke="#6d6e71" stroke-linecap="round" stroke-linejoin="round" stroke-width="2"/>
      <line id="Line_290" data-name="Line 290" y1="1.99" x2="9.76" transform="translate(-477.08 -537.15)" fill="none" stroke="#6d6e71" stroke-linecap="round" stroke-linejoin="round" stroke-width="2"/>
      <path id="Path_189" data-name="Path 189" d="M324.31,987.6l1.13-1.24-1.51-.77" transform="translate(-800 -1522)" fill="none" stroke="#6d6e71" stroke-linecap="round" stroke-linejoin="round" stroke-width="2"/>
      <path id="Path_190" data-name="Path 190" d="M331.77,986.08l-1.47-.72,1.14-1.3" transform="translate(-800 -1522)" fill="none" stroke="#6d6e71" stroke-linecap="round" stroke-linejoin="round" stroke-width="2"/>
      <line id="Line_291" data-name="Line 291" x1="2.7" y2="9.15" transform="translate(-487.85 -537.64)" fill="none" stroke="#6d6e71" stroke-linecap="round" stroke-linejoin="round" stroke-width="2"/>
      <path id="Path_191" data-name="Path 191" d="M313.48,985.23l.64,1.48,1.43-.96" transform="translate(-800 -1522)" fill="none" stroke="#6d6e71" stroke-linecap="round" stroke-linejoin="round" stroke-width="2"/>
      <path id="Path_192" data-name="Path 192" d="M311.42,992.22l1.36-.95.69,1.52" transform="translate(-800 -1522)" fill="none" stroke="#6d6e71" stroke-linecap="round" stroke-linejoin="round" stroke-width="2"/>
      <line id="Line_292" data-name="Line 292" x2="9.63" y2="2.57" transform="translate(-491.32 -534.35)" fill="none" stroke="#6d6e71" stroke-linecap="round" stroke-linejoin="round" stroke-width="2"/>
      <path id="Path_193" data-name="Path 193" d="M309.59,988.96l1.56-.62-1-1.35" transform="translate(-800 -1522)" fill="none" stroke="#6d6e71" stroke-linecap="round" stroke-linejoin="round" stroke-width="2"/>
      <path id="Path_194" data-name="Path 194" d="M316.94,990.92l-.99-1.3,1.6-.66" transform="translate(-800 -1522)" fill="none" stroke="#6d6e71" stroke-linecap="round" stroke-linejoin="round" stroke-width="2"/>
    </g>
  </g>
</svg>
