<svg xmlns="http://www.w3.org/2000/svg" width="48" height="48.374" viewBox="0 0 48 48.374">
  <g id="ic_weather_7" transform="translate(476 1175)">
    <rect id="Rectangle_7" data-name="Rectangle 7" width="48" height="48" transform="translate(-476 -1175)" fill="#ffd2d2" opacity="0"/>
    <g id="Group_23" data-name="Group 23" transform="translate(27.14 -2.7)">
      <path id="Path_6" data-name="Path 6" d="M398,367.918a12.387,12.387,0,0,1-7.833,7.107,7.368,7.368,0,0,0-1.363-2.563,7.87,7.87,0,0,0-1.538-1.46,8.983,8.983,0,0,0-5.3-1.7,8.473,8.473,0,0,0-.88,0v-.1a7.823,7.823,0,0,0-5.3-7.214,8.779,8.779,0,0,0-1.46-.416,12.329,12.329,0,0,1,9.215-10.4A12.482,12.482,0,0,0,398,367.918Z" transform="translate(-854.19 -1522.47)" fill="none" stroke="#6d6e71" stroke-linecap="round" stroke-linejoin="round" stroke-width="2"/>
      <path id="Path_7" data-name="Path 7" d="M389.179,376.946c0,4.3-3.868,7.8-8.51,7.8h-21.39a8.51,8.51,0,0,1-8.442-7.33,7.645,7.645,0,0,1-.077-1.141,8.5,8.5,0,0,1,8.519-8.461,8.394,8.394,0,0,1,3.491.745c.3-4.061,4-7.262,8.5-7.262a8.973,8.973,0,0,1,3.22.59,7.823,7.823,0,0,1,5.289,7.214v.1a8.636,8.636,0,0,1,.88,0,8.973,8.973,0,0,1,5.3,1.692,7.736,7.736,0,0,1,1.537,1.46,7.349,7.349,0,0,1,1.683,4.593Z" transform="translate(-852.9 -1522.35)" fill="none" stroke="#6d6e71" stroke-linecap="round" stroke-linejoin="round" stroke-width="2"/>
      <line id="Line_17" data-name="Line 17" x1="6.179" y2="10.298" transform="translate(-493.021 -1137.049)" fill="none" stroke="#6d6e71" stroke-linecap="round" stroke-linejoin="round" stroke-width="2"/>
      <line id="Line_18" data-name="Line 18" x1="5.386" y2="8.838" transform="translate(-488.786 -1134.138)" fill="none" stroke="#6d6e71" stroke-linecap="round" stroke-linejoin="round" stroke-width="2"/>
      <line id="Line_19" data-name="Line 19" x1="6.189" y2="10.298" transform="translate(-482.964 -1137.049)" fill="none" stroke="#6d6e71" stroke-linecap="round" stroke-linejoin="round" stroke-width="2"/>
    </g>
  </g>
</svg>
