<svg xmlns="http://www.w3.org/2000/svg" width="48" height="48" viewBox="0 0 48 48">
  <g id="ic_sky" transform="translate(574 1273)">
    <rect id="Rectangle_7" data-name="Rectangle 7" width="48" height="48" transform="translate(-574 -1273)" fill="#ffd2d2" opacity="0"/>
    <g id="Group_16" data-name="Group 16" transform="translate(28.01 -3.82)">
      <path id="Path_31" data-name="Path 31" d="M294.63,281c0,4.45-4,8.07-8.8,8.07H263.7a8.8,8.8,0,0,1-8.73-7.58,7.9,7.9,0,0,1-.08-1.18,8.79,8.79,0,0,1,8.81-8.75,8.68,8.68,0,0,1,3.61.77c.31-4.2,4.14-7.51,8.79-7.51a9.28,9.28,0,0,1,3.33.61,8.09,8.09,0,0,1,5.47,7.46v.1a8.917,8.917,0,0,1,.91,0,9.28,9.28,0,0,1,5.48,1.75,8,8,0,0,1,1.59,1.51,7.6,7.6,0,0,1,1.75,4.75Z" transform="translate(-852.9 -1522)" fill="none" stroke="#6d6e71" stroke-linecap="round" stroke-linejoin="round" stroke-width="2"/>
    </g>
  </g>
</svg>
