<svg xmlns="http://www.w3.org/2000/svg" width="48" height="48.39" viewBox="0 0 48 48.39">
  <g id="ic_weather_18" transform="translate(574 979)">
    <rect id="Rectangle_7" data-name="Rectangle 7" width="48" height="48" transform="translate(-574 -979)" fill="#ffd2d2" opacity="0"/>
    <g id="Group_34" data-name="Group 34" transform="translate(28.71 -7.13)">
      <path id="Path_145" data-name="Path 145" d="M215.929,586.46l-4,5.883h4.086l-4.086,5.989" transform="translate(-800.464 -1523.202)" fill="none" stroke="#6d6e71" stroke-linecap="round" stroke-linejoin="round" stroke-width="2"/>
      <path id="Path_146" data-name="Path 146" d="M223.549,586.4l-4,5.892h4.086l-4.086,5.989" transform="translate(-800.723 -1523.2)" fill="none" stroke="#6d6e71" stroke-linecap="round" stroke-linejoin="round" stroke-width="2"/>
      <path id="Path_147" data-name="Path 147" d="M297.9,567.86a12.374,12.374,0,0,1-7.824,7.1,7.354,7.354,0,0,0-1.362-2.56,7.857,7.857,0,0,0-1.535-1.459,8.975,8.975,0,0,0-5.294-1.7,8.25,8.25,0,0,0-.879,0v-.1a7.815,7.815,0,0,0-5.294-7.207,8.82,8.82,0,0,0-1.458-.415,12.316,12.316,0,0,1,9.206-10.394A12.469,12.469,0,0,0,297.9,567.86Z" transform="translate(-853.685 -1522)" fill="none" stroke="#6d6e71" stroke-linecap="round" stroke-linejoin="round" stroke-width="2"/>
      <path id="Path_148" data-name="Path 148" d="M289.645,577.447c0,4.3-3.864,7.8-8.5,7.8H259.7a8.5,8.5,0,0,1-8.433-7.323,7.451,7.451,0,0,1-.077-1.139,8.49,8.49,0,0,1,8.51-8.51,8.4,8.4,0,0,1,3.487.753c.3-4.057,4-7.264,8.491-7.264a9.189,9.189,0,0,1,3.217.588,7.816,7.816,0,0,1,5.294,7.206v.1a8.277,8.277,0,0,1,.879,0,8.978,8.978,0,0,1,5.294,1.7,7.882,7.882,0,0,1,1.536,1.459,7.365,7.365,0,0,1,1.362,2.56A7.061,7.061,0,0,1,289.645,577.447Z" transform="translate(-852.9 -1522.363)" fill="none" stroke="#6d6e71" stroke-linecap="round" stroke-linejoin="round" stroke-width="2"/>
    </g>
  </g>
</svg>
