<svg xmlns="http://www.w3.org/2000/svg" width="48" height="48" viewBox="0 0 48 48">
  <g id="ic_weather_5" transform="translate(672 1175)">
    <rect id="Rectangle_7" data-name="Rectangle 7" width="48" height="48" transform="translate(-672 -1175)" fill="#ffd2d2" opacity="0"/>
    <g id="Group_21" data-name="Group 21" transform="translate(29.49 -2.14)">
      <path id="Path_139" data-name="Path 139" d="M190.756,377.436c0,4.3-3.861,7.789-8.493,7.789H160.913a8.493,8.493,0,0,1-8.426-7.316,7.626,7.626,0,0,1-.077-1.139,8.484,8.484,0,0,1,8.5-8.445,8.378,8.378,0,0,1,3.484.743c.3-4.054,4-7.248,8.484-7.248a8.957,8.957,0,0,1,3.214.589,7.808,7.808,0,0,1,5.279,7.2v.1a8.612,8.612,0,0,1,.878,0,8.957,8.957,0,0,1,5.289,1.689,7.723,7.723,0,0,1,1.535,1.457,7.335,7.335,0,0,1,1.679,4.585Z" transform="translate(-852.9 -1522.372)" fill="none" stroke="#6d6e71" stroke-linecap="round" stroke-linejoin="round" stroke-width="2"/>
      <path id="Path_140" data-name="Path 140" d="M191.477,365.614a6.843,6.843,0,0,1-3.05,5.617,8.957,8.957,0,0,0-5.289-1.689,8.63,8.63,0,0,0-.878,0v-.1a7.808,7.808,0,0,0-5.279-7.2,7.818,7.818,0,0,1,6.756-3.725C188,358.559,191.477,361.724,191.477,365.614Z" transform="translate(-853.756 -1522.257)" fill="none" stroke="#6d6e71" stroke-linecap="round" stroke-linejoin="round" stroke-width="2"/>
      <line id="Line_194" data-name="Line 194" y2="3.339" transform="translate(-670.01 -1170.86)" fill="none" stroke="#6d6e71" stroke-linecap="round" stroke-linejoin="round" stroke-width="2"/>
      <line id="Line_195" data-name="Line 195" x2="2.577" y2="2.355" transform="translate(-680.993 -1166.691)" fill="none" stroke="#6d6e71" stroke-linecap="round" stroke-linejoin="round" stroke-width="2"/>
      <line id="Line_196" data-name="Line 196" x2="2.567" y2="2.365" transform="translate(-660.32 -1149.404)" fill="none" stroke="#6d6e71" stroke-linecap="round" stroke-linejoin="round" stroke-width="2"/>
      <line id="Line_197" data-name="Line 197" x2="3.639" transform="translate(-658.129 -1156.643)" fill="none" stroke="#6d6e71" stroke-linecap="round" stroke-linejoin="round" stroke-width="2"/>
      <line id="Line_198" data-name="Line 198" y1="2.355" x2="2.567" transform="translate(-661.603 -1166.691)" fill="none" stroke="#6d6e71" stroke-linecap="round" stroke-linejoin="round" stroke-width="2"/>
      <g id="Group_151" data-name="Group 151" transform="translate(-685.858 -1136.182)">
        <line id="Line_199" data-name="Line 199" y2="8.136" transform="translate(4.536 1.93)" stroke-dasharray="1 5" stroke="#6d6e71" stroke-linecap="round" stroke-linejoin="round" stroke-width="2" fill="none"/>
        <line id="Line_200" data-name="Line 200" y2="8.136" transform="translate(9.053)" stroke-dasharray="1 5" stroke="#6d6e71" stroke-linecap="round" stroke-linejoin="round" stroke-width="2" fill="none"/>
        <line id="Line_201" data-name="Line 201" y2="8.136" stroke-dasharray="1 5" stroke="#6d6e71" stroke-linecap="round" stroke-linejoin="round" stroke-width="2" fill="none"/>
      </g>
    </g>
  </g>
</svg>
