<svg xmlns="http://www.w3.org/2000/svg" width="48" height="48.39" viewBox="0 0 48 48.39">
  <g id="ic_weather_17" transform="translate(672 979)">
    <rect id="Rectangle_7" data-name="Rectangle 7" width="48" height="48" transform="translate(-672 -979)" fill="#ffd2d2" opacity="0"/>
    <g id="Group_33" data-name="Group 33" transform="translate(30.99 -7.25)">
      <path id="Path_12" data-name="Path 12" d="M116.188,586.95l-3.968,5.838h4.055l-4.055,5.943" transform="translate(-800.589 -1523.481)" fill="none" stroke="#6d6e71" stroke-linecap="round" stroke-linejoin="round" stroke-width="2"/>
      <path id="Path_13" data-name="Path 13" d="M123.808,586.89l-3.968,5.837h4.055l-4.055,5.943" transform="translate(-800.905 -1523.477)" fill="none" stroke="#6d6e71" stroke-linecap="round" stroke-linejoin="round" stroke-width="2"/>
      <path id="Path_14" data-name="Path 14" d="M188.993,577.439c0,4.265-3.834,7.735-8.435,7.735h-21.2a8.436,8.436,0,0,1-8.368-7.266,7.6,7.6,0,0,1-.077-1.131,8.425,8.425,0,0,1,8.445-8.387,8.327,8.327,0,0,1,3.46.738c.3-4.026,3.968-7.2,8.426-7.2a8.884,8.884,0,0,1,3.192.584,7.755,7.755,0,0,1,5.243,7.151v.1a8.45,8.45,0,0,1,.872,0,8.893,8.893,0,0,1,5.253,1.678,7.648,7.648,0,0,1,1.524,1.447A7.286,7.286,0,0,1,188.993,577.439Z" transform="translate(-852.9 -1522.442)" fill="none" stroke="#6d6e71" stroke-linecap="round" stroke-linejoin="round" stroke-width="2"/>
      <path id="Path_15" data-name="Path 15" d="M189.857,565.7a6.8,6.8,0,0,1-3.029,5.579,8.892,8.892,0,0,0-5.253-1.677,8.187,8.187,0,0,0-.872,0v-.068a7.752,7.752,0,0,0-5.243-7.15,7.763,7.763,0,0,1,6.71-3.7C186.426,558.661,189.857,561.805,189.857,565.7Z" transform="translate(-853.917 -1522.308)" fill="none" stroke="#6d6e71" stroke-linecap="round" stroke-linejoin="round" stroke-width="2"/>
      <line id="Line_31" data-name="Line 31" y2="3.307" transform="translate(-671.719 -970.75)" fill="none" stroke="#6d6e71" stroke-linecap="round" stroke-linejoin="round" stroke-width="2"/>
      <line id="Line_32" data-name="Line 32" x2="2.55" y2="2.339" transform="translate(-682.617 -966.619)" fill="none" stroke="#6d6e71" stroke-linecap="round" stroke-linejoin="round" stroke-width="2"/>
      <line id="Line_33" data-name="Line 33" x2="2.559" y2="2.339" transform="translate(-662.095 -949.442)" fill="none" stroke="#6d6e71" stroke-linecap="round" stroke-linejoin="round" stroke-width="2"/>
      <line id="Line_34" data-name="Line 34" x2="3.614" transform="translate(-659.91 -956.64)" fill="none" stroke="#6d6e71" stroke-linecap="round" stroke-linejoin="round" stroke-width="2"/>
      <line id="Line_35" data-name="Line 35" y1="2.339" x2="2.559" transform="translate(-663.37 -966.619)" fill="none" stroke="#6d6e71" stroke-linecap="round" stroke-linejoin="round" stroke-width="2"/>
    </g>
  </g>
</svg>
