<svg xmlns="http://www.w3.org/2000/svg" width="48" height="48" viewBox="0 0 48 48">
  <g id="ic_weather_4" transform="translate(770 1175)">
    <rect id="Rectangle_7" data-name="Rectangle 7" width="48" height="48" transform="translate(-770 -1175)" fill="#ffd2d2" opacity="0"/>
    <g id="Group_162" data-name="Group 162" transform="translate(0 -3.26)">
      <path id="Path_167" data-name="Path 167" d="M95.58,372.47c0,4.45-4,8.07-8.8,8.07H64.65A8.8,8.8,0,0,1,55.93,373a7.9,7.9,0,0,1-.08-1.18,8.79,8.79,0,0,1,8.8-8.82,8.68,8.68,0,0,1,3.61.77c.31-4.2,4.14-7.51,8.79-7.51a9.279,9.279,0,0,1,3.33.61,8.09,8.09,0,0,1,5.47,7.46v.1a8.935,8.935,0,0,1,.91,0,9.28,9.28,0,0,1,5.48,1.75,8,8,0,0,1,1.59,1.51A7.6,7.6,0,0,1,95.58,372.47Z" transform="translate(-821.35 -1522)" fill="none" stroke="#6d6e71" stroke-linecap="round" stroke-linejoin="round" stroke-width="2"/>
      <g id="Group_153" data-name="Group 153" transform="translate(-65.67 -5.57)">
        <line id="Line_199" data-name="Line 199" y2="8.43" transform="translate(-680.63 -1132.93)" stroke-dasharray="1 5" stroke="#6d6e71" stroke-linecap="round" stroke-linejoin="round" stroke-width="2" fill="none"/>
        <line id="Line_200" data-name="Line 200" y2="8.43" transform="translate(-675.95 -1134.93)" stroke-dasharray="1 5" stroke="#6d6e71" stroke-linecap="round" stroke-linejoin="round" stroke-width="2" fill="none"/>
        <line id="Line_201" data-name="Line 201" y2="8.43" transform="translate(-685.33 -1134.93)" stroke-dasharray="1 5" stroke="#6d6e71" stroke-linecap="round" stroke-linejoin="round" stroke-width="2" fill="none"/>
      </g>
    </g>
  </g>
</svg>
