<svg xmlns="http://www.w3.org/2000/svg" width="48" height="48.355" viewBox="0 0 48 48.355">
  <g id="ic_weather_11" transform="translate(672 1077)">
    <rect id="Rectangle_7" data-name="Rectangle 7" width="48" height="48" transform="translate(-672 -1077)" fill="#ffd2d2" opacity="0"/>
    <g id="Group_30" data-name="Group 30" transform="translate(30.71 -5.29)">
      <path id="Path_25" data-name="Path 25" d="M189.538,477.583c0,4.294-3.86,7.787-8.492,7.787H159.691a8.49,8.49,0,0,1-8.424-7.314,7.587,7.587,0,0,1-.077-1.138,8.482,8.482,0,0,1,8.5-8.453,8.383,8.383,0,0,1,3.484.743c.3-4.053,3.995-7.247,8.482-7.247a8.966,8.966,0,0,1,3.214.588,7.807,7.807,0,0,1,5.278,7.2v.1a8.5,8.5,0,0,1,.878,0,8.949,8.949,0,0,1,5.288,1.689,7.712,7.712,0,0,1,1.534,1.457A7.334,7.334,0,0,1,189.538,477.583Z" transform="translate(-852.9 -1522.374)" fill="none" stroke="#6d6e71" stroke-linecap="round" stroke-linejoin="round" stroke-width="2"/>
      <path id="Path_26" data-name="Path 26" d="M190.234,465.744a6.841,6.841,0,0,1-3.049,5.616,8.959,8.959,0,0,0-5.288-1.688,8.78,8.78,0,0,0-.878,0V469.6a7.806,7.806,0,0,0-5.278-7.2,7.816,7.816,0,0,1,6.755-3.725C186.789,458.709,190.234,461.883,190.234,465.744Z" transform="translate(-853.76 -1522.26)" fill="none" stroke="#6d6e71" stroke-linecap="round" stroke-linejoin="round" stroke-width="2"/>
      <line id="Line_51" data-name="Line 51" y2="3.329" transform="translate(-671.226 -1070.71)" fill="none" stroke="#6d6e71" stroke-linecap="round" stroke-linejoin="round" stroke-width="2"/>
      <line id="Line_52" data-name="Line 52" x2="2.567" y2="2.355" transform="translate(-682.198 -1066.551)" fill="none" stroke="#6d6e71" stroke-linecap="round" stroke-linejoin="round" stroke-width="2"/>
      <line id="Line_53" data-name="Line 53" x2="2.576" y2="2.355" transform="translate(-661.539 -1049.258)" fill="none" stroke="#6d6e71" stroke-linecap="round" stroke-linejoin="round" stroke-width="2"/>
      <line id="Line_54" data-name="Line 54" x2="3.638" transform="translate(-659.348 -1056.496)" fill="none" stroke="#6d6e71" stroke-linecap="round" stroke-linejoin="round" stroke-width="2"/>
      <line id="Line_55" data-name="Line 55" y1="2.355" x2="2.567" transform="translate(-662.822 -1066.551)" fill="none" stroke="#6d6e71" stroke-linecap="round" stroke-linejoin="round" stroke-width="2"/>
      <line id="Line_56" data-name="Line 56" x1="1.737" y2="2.905" transform="translate(-688.181 -1036.463)" fill="none" stroke="#6d6e71" stroke-linecap="round" stroke-linejoin="round" stroke-width="2"/>
      <line id="Line_57" data-name="Line 57" x1="1.737" y2="2.895" transform="translate(-692.61 -1029.081)" fill="none" stroke="#6d6e71" stroke-linecap="round" stroke-linejoin="round" stroke-width="2"/>
      <line id="Line_58" data-name="Line 58" x1="1.756" y2="2.885" transform="translate(-684.765 -1033.56)" fill="none" stroke="#6d6e71" stroke-linecap="round" stroke-linejoin="round" stroke-width="2"/>
      <line id="Line_59" data-name="Line 59" x1="1.756" y2="2.885" transform="translate(-688.384 -1027.615)" fill="none" stroke="#6d6e71" stroke-linecap="round" stroke-linejoin="round" stroke-width="2"/>
      <line id="Line_60" data-name="Line 60" x1="1.737" y2="2.905" transform="translate(-678.136 -1036.463)" fill="none" stroke="#6d6e71" stroke-linecap="round" stroke-linejoin="round" stroke-width="2"/>
      <line id="Line_61" data-name="Line 61" x1="1.737" y2="2.895" transform="translate(-682.565 -1029.081)" fill="none" stroke="#6d6e71" stroke-linecap="round" stroke-linejoin="round" stroke-width="2"/>
    </g>
  </g>
</svg>
