<svg xmlns="http://www.w3.org/2000/svg" width="48" height="48.365" viewBox="0 0 48 48.365">
  <g id="ic_weather_9" transform="translate(280 1175)">
    <rect id="Rectangle_7" data-name="Rectangle 7" width="48" height="48" transform="translate(-280 -1175)" fill="#ffd2d2" opacity="0"/>
    <g id="Group_25" data-name="Group 25" transform="translate(22.89 -3.29)">
      <path id="Path_4" data-name="Path 4" d="M589.356,377.586c0,4.3-3.861,7.789-8.493,7.789H559.513a8.493,8.493,0,0,1-8.426-7.316,7.628,7.628,0,0,1-.077-1.139,8.484,8.484,0,0,1,8.5-8.445,8.377,8.377,0,0,1,3.484.743c.3-4.054,4-7.248,8.484-7.248a8.956,8.956,0,0,1,3.214.589,7.808,7.808,0,0,1,5.26,7.162v.1a8.62,8.62,0,0,1,.878,0,8.957,8.957,0,0,1,5.289,1.689,7.721,7.721,0,0,1,1.535,1.457,7.335,7.335,0,0,1,1.7,4.623Z" transform="translate(-852.9 -1522.372)" fill="none" stroke="#6d6e71" stroke-linecap="round" stroke-linejoin="round" stroke-width="2"/>
      <path id="Path_5" data-name="Path 5" d="M590.057,365.745a6.843,6.843,0,0,1-3.05,5.617,8.956,8.956,0,0,0-5.289-1.689,8.62,8.62,0,0,0-.878,0v-.068a7.808,7.808,0,0,0-5.279-7.2,7.818,7.818,0,0,1,6.756-3.726C586.6,358.709,590.057,361.884,590.057,365.745Z" transform="translate(-853.755 -1522.257)" fill="none" stroke="#6d6e71" stroke-linecap="round" stroke-linejoin="round" stroke-width="2"/>
      <line id="Line_9" data-name="Line 9" y2="3.339" transform="translate(-271.41 -1170.71)" fill="none" stroke="#6d6e71" stroke-linecap="round" stroke-linejoin="round" stroke-width="2"/>
      <line id="Line_10" data-name="Line 10" x2="2.567" y2="2.355" transform="translate(-282.384 -1166.541)" fill="none" stroke="#6d6e71" stroke-linecap="round" stroke-linejoin="round" stroke-width="2"/>
      <line id="Line_11" data-name="Line 11" x2="2.577" y2="2.365" transform="translate(-261.72 -1149.254)" fill="none" stroke="#6d6e71" stroke-linecap="round" stroke-linejoin="round" stroke-width="2"/>
      <line id="Line_12" data-name="Line 12" x2="3.639" transform="translate(-259.529 -1156.493)" fill="none" stroke="#6d6e71" stroke-linecap="round" stroke-linejoin="round" stroke-width="2"/>
      <line id="Line_13" data-name="Line 13" y1="2.355" x2="2.567" transform="translate(-263.003 -1166.541)" fill="none" stroke="#6d6e71" stroke-linecap="round" stroke-linejoin="round" stroke-width="2"/>
      <line id="Line_14" data-name="Line 14" x1="6.177" y2="10.279" transform="translate(-292.798 -1136.447)" fill="none" stroke="#6d6e71" stroke-linecap="round" stroke-linejoin="round" stroke-width="2"/>
      <line id="Line_15" data-name="Line 15" x1="5.386" y2="8.822" transform="translate(-288.57 -1133.541)" fill="none" stroke="#6d6e71" stroke-linecap="round" stroke-linejoin="round" stroke-width="2"/>
      <line id="Line_16" data-name="Line 16" x1="6.167" y2="10.279" transform="translate(-282.751 -1136.447)" fill="none" stroke="#6d6e71" stroke-linecap="round" stroke-linejoin="round" stroke-width="2"/>
    </g>
  </g>
</svg>
