<svg xmlns="http://www.w3.org/2000/svg" width="48" height="48" viewBox="0 0 48 48">
  <g id="ic_weather_8" transform="translate(378 1175)">
    <rect id="Rectangle_7" data-name="Rectangle 7" width="48" height="48" transform="translate(-378 -1175)" fill="#ffd2d2" opacity="0"/>
    <g id="Group_24" data-name="Group 24" transform="translate(23.45 -3.97)">
      <path id="Path_16" data-name="Path 16" d="M495.18,373.15c0,4.45-4,8.07-8.8,8.07H464.26a8.8,8.8,0,0,1-8.73-7.58,7.9,7.9,0,0,1-.08-1.18,8.79,8.79,0,0,1,8.81-8.75,8.679,8.679,0,0,1,3.61.77c.31-4.2,4.14-7.51,8.79-7.51a9.281,9.281,0,0,1,3.33.61,8.09,8.09,0,0,1,5.47,7.46v.1a8.926,8.926,0,0,1,.91,0,9.28,9.28,0,0,1,5.48,1.75,8,8,0,0,1,1.59,1.51A7.6,7.6,0,0,1,495.18,373.15Z" transform="translate(-852.9 -1522)" fill="none" stroke="#6d6e71" stroke-linecap="round" stroke-linejoin="round" stroke-width="2"/>
      <line id="Line_36" data-name="Line 36" x1="6.39" y2="10.65" transform="translate(-388.03 -1140.21)" fill="none" stroke="#6d6e71" stroke-linecap="round" stroke-linejoin="round" stroke-width="2"/>
      <line id="Line_37" data-name="Line 37" x1="5.57" y2="9.14" transform="translate(-383.65 -1137.2)" fill="none" stroke="#6d6e71" stroke-linecap="round" stroke-linejoin="round" stroke-width="2"/>
      <line id="Line_38" data-name="Line 38" x1="6.39" y2="10.65" transform="translate(-377.62 -1140.21)" fill="none" stroke="#6d6e71" stroke-linecap="round" stroke-linejoin="round" stroke-width="2"/>
    </g>
  </g>
</svg>
