<svg xmlns="http://www.w3.org/2000/svg" width="48" height="48" viewBox="0 0 48 48">
  <g id="ic_snow" transform="translate(672 1273)">
    <rect id="Rectangle_7" data-name="Rectangle 7" width="48" height="48" transform="translate(-672 -1273)" fill="#ffd2d2" opacity="0"/>
    <g id="Group_15" data-name="Group 15" transform="translate(29.55 -3.82)">
      <line id="Line_286" data-name="Line 286" y2="34" transform="translate(-677.754 -1262.18)" fill="none" stroke="#6d6e71" stroke-linecap="round" stroke-linejoin="round" stroke-width="2"/>
      <path id="Path_180" data-name="Path 180" d="M116.46,263.579l4.511,4.522,4.77-4.6" transform="translate(-798.849 -1521.53)" fill="none" stroke="#6d6e71" stroke-linecap="round" stroke-linejoin="round" stroke-width="2"/>
      <path id="Path_181" data-name="Path 181" d="M116.46,287.121l4.511-4.511,4.77,4.6" transform="translate(-798.849 -1519.09)" fill="none" stroke="#6d6e71" stroke-linecap="round" stroke-linejoin="round" stroke-width="2"/>
      <line id="Line_287" data-name="Line 287" x2="29.444" y2="17.006" transform="translate(-692.471 -1253.688)" fill="none" stroke="#6d6e71" stroke-linecap="round" stroke-linejoin="round" stroke-width="2"/>
      <path id="Path_182" data-name="Path 182" d="M108.71,273.716l6.168-1.658-1.59-6.428" transform="translate(-799.839 -1521.258)" fill="none" stroke="#6d6e71" stroke-linecap="round" stroke-linejoin="round" stroke-width="2"/>
      <path id="Path_183" data-name="Path 183" d="M128.846,285.227l-1.646-6.168,6.371-1.838" transform="translate(-797.478 -1519.778)" fill="none" stroke="#6d6e71" stroke-linecap="round" stroke-linejoin="round" stroke-width="2"/>
      <line id="Line_288" data-name="Line 288" y1="16.994" x2="29.444" transform="translate(-692.55 -1253.632)" fill="none" stroke="#6d6e71" stroke-linecap="round" stroke-linejoin="round" stroke-width="2"/>
      <path id="Path_184" data-name="Path 184" d="M113.294,285.067l1.658-6.168-6.371-1.838" transform="translate(-799.855 -1519.799)" fill="none" stroke="#6d6e71" stroke-linecap="round" stroke-linejoin="round" stroke-width="2"/>
      <path id="Path_185" data-name="Path 185" d="M133.408,273.556,127.24,271.9l1.6-6.428" transform="translate(-797.473 -1521.279)" fill="none" stroke="#6d6e71" stroke-linecap="round" stroke-linejoin="round" stroke-width="2"/>
    </g>
  </g>
</svg>
