<svg xmlns="http://www.w3.org/2000/svg" width="48" height="48.242" viewBox="0 0 48 48.242">
  <g id="ic_weather_44" transform="translate(378 587)">
    <rect id="Rectangle_7" data-name="Rectangle 7" width="48" height="48" transform="translate(-378 -587)" fill="#ffd2d2" opacity="0"/>
    <g id="Group_58" data-name="Group 58" transform="translate(24.87 -15.19)">
      <path id="Path_195" data-name="Path 195" d="M488.7,977.213c0,4.22-3.793,7.652-8.345,7.652H459.384a8.345,8.345,0,0,1-8.278-7.188,7.5,7.5,0,0,1-.076-1.119,8.335,8.335,0,0,1,8.354-8.3,8.23,8.23,0,0,1,3.423.73c.294-3.983,3.926-7.121,8.335-7.121a8.8,8.8,0,0,1,3.158.578,7.671,7.671,0,0,1,5.187,7.074v.095a8.425,8.425,0,0,1,.863,0,8.8,8.8,0,0,1,5.2,1.659,7.589,7.589,0,0,1,1.508,1.432,7.207,7.207,0,0,1,1.65,4.5Z" transform="translate(-852.9 -1522.553)" fill="none" stroke="#6d6e71" stroke-linecap="round" stroke-linejoin="round" stroke-width="2"/>
      <path id="Path_196" data-name="Path 196" d="M489.815,965.54a6.723,6.723,0,0,1-3,5.519,8.8,8.8,0,0,0-5.149-1.65,8.478,8.478,0,0,0-.863,0v-.095a7.671,7.671,0,0,0-5.187-7.074,7.681,7.681,0,0,1,6.638-3.66C486.411,958.608,489.815,961.719,489.815,965.54Z" transform="translate(-854.172 -1522.382)" fill="none" stroke="#6d6e71" stroke-linecap="round" stroke-linejoin="round" stroke-width="2"/>
      <line id="Line_293" data-name="Line 293" y2="3.281" transform="translate(-371.924 -570.81)" fill="none" stroke="#6d6e71" stroke-linecap="round" stroke-linejoin="round" stroke-width="2"/>
      <line id="Line_294" data-name="Line 294" x2="2.522" y2="2.314" transform="translate(-382.706 -566.714)" fill="none" stroke="#6d6e71" stroke-linecap="round" stroke-linejoin="round" stroke-width="2"/>
      <line id="Line_295" data-name="Line 295" x2="2.532" y2="2.323" transform="translate(-362.403 -549.73)" fill="none" stroke="#6d6e71" stroke-linecap="round" stroke-linejoin="round" stroke-width="2"/>
      <line id="Line_296" data-name="Line 296" x2="3.575" transform="translate(-360.251 -556.842)" fill="none" stroke="#6d6e71" stroke-linecap="round" stroke-linejoin="round" stroke-width="2"/>
      <line id="Line_297" data-name="Line 297" y1="2.314" x2="2.522" transform="translate(-363.664 -566.714)" fill="none" stroke="#6d6e71" stroke-linecap="round" stroke-linejoin="round" stroke-width="2"/>
      <line id="Line_298" data-name="Line 298" x2="1.584" y2="8.914" transform="translate(-376.75 -536.54)" fill="none" stroke="#6d6e71" stroke-linecap="round" stroke-linejoin="round" stroke-width="2"/>
      <path id="Path_197" data-name="Path 197" d="M423.78,988.7l1.176.977.806-1.413" transform="translate(-801.327 -1523.918)" fill="none" stroke="#6d6e71" stroke-linecap="round" stroke-linejoin="round" stroke-width="2"/>
      <path id="Path_198" data-name="Path 198" d="M425.06,995.815l.749-1.375,1.233,1" transform="translate(-801.393 -1524.238)" fill="none" stroke="#6d6e71" stroke-linecap="round" stroke-linejoin="round" stroke-width="2"/>
      <line id="Line_299" data-name="Line 299" y1="1.887" x2="9.255" transform="translate(-380.591 -533.031)" fill="none" stroke="#6d6e71" stroke-linecap="round" stroke-linejoin="round" stroke-width="2"/>
      <path id="Path_199" data-name="Path 199" d="M421.95,993.676l1.062-1.176-1.422-.73" transform="translate(-801.214 -1524.1)" fill="none" stroke="#6d6e71" stroke-linecap="round" stroke-linejoin="round" stroke-width="2"/>
      <path id="Path_200" data-name="Path 200" d="M429.344,992.155l-1.394-.673,1.081-1.242" transform="translate(-801.543 -1524.021)" fill="none" stroke="#6d6e71" stroke-linecap="round" stroke-linejoin="round" stroke-width="2"/>
      <line id="Line_300" data-name="Line 300" x1="2.56" y2="8.677" transform="translate(-390.804 -533.487)" fill="none" stroke="#6d6e71" stroke-linecap="round" stroke-linejoin="round" stroke-width="2"/>
      <path id="Path_201" data-name="Path 201" d="M411.13,991.41l.616,1.4,1.347-.9" transform="translate(-800.672 -1524.081)" fill="none" stroke="#6d6e71" stroke-linecap="round" stroke-linejoin="round" stroke-width="2"/>
      <path id="Path_202" data-name="Path 202" d="M409.07,998.351l1.29-.891.664,1.441" transform="translate(-800.566 -1524.394)" fill="none" stroke="#6d6e71" stroke-linecap="round" stroke-linejoin="round" stroke-width="2"/>
      <line id="Line_301" data-name="Line 301" x2="9.122" y2="2.437" transform="translate(-394.085 -530.367)" fill="none" stroke="#6d6e71" stroke-linecap="round" stroke-linejoin="round" stroke-width="2"/>
      <path id="Path_203" data-name="Path 203" d="M407.25,995.038l1.479-.578-.958-1.29" transform="translate(-800.472 -1524.172)" fill="none" stroke="#6d6e71" stroke-linecap="round" stroke-linejoin="round" stroke-width="2"/>
      <path id="Path_204" data-name="Path 204" d="M414.548,997l-.948-1.223,1.517-.626" transform="translate(-800.8 -1524.275)" fill="none" stroke="#6d6e71" stroke-linecap="round" stroke-linejoin="round" stroke-width="2"/>
    </g>
  </g>
</svg>
