<svg xmlns="http://www.w3.org/2000/svg" width="48" height="48" viewBox="0 0 48 48">
  <g id="ic_weather_1" transform="translate(476 1273)">
    <rect id="Rectangle_7" data-name="Rectangle 7" width="48" height="48" transform="translate(-476 -1273)" fill="#ffd2d2" opacity="0"/>
    <g id="Group_17" data-name="Group 17" transform="translate(27.14 -1.12)">
      <path id="Path_32" data-name="Path 32" d="M389.108,283.433c0,4.294-3.86,7.787-8.492,7.787H359.261a8.492,8.492,0,0,1-8.424-7.314,7.621,7.621,0,0,1-.077-1.139,8.482,8.482,0,0,1,8.5-8.443,8.377,8.377,0,0,1,3.483.743c.3-4.053,3.995-7.247,8.482-7.247a8.955,8.955,0,0,1,3.213.589,7.807,7.807,0,0,1,5.278,7.2v.1a8.609,8.609,0,0,1,.878,0,8.955,8.955,0,0,1,5.288,1.689,7.719,7.719,0,0,1,1.534,1.457,7.333,7.333,0,0,1,1.689,4.584Z" transform="translate(-852.9 -1522.375)" fill="none" stroke="#6d6e71" stroke-linecap="round" stroke-linejoin="round" stroke-width="2"/>
      <path id="Path_33" data-name="Path 33" d="M389.8,271.582a6.841,6.841,0,0,1-3.049,5.616,8.955,8.955,0,0,0-5.288-1.689,8.627,8.627,0,0,0-.878,0v-.1a7.806,7.806,0,0,0-5.278-7.2,7.816,7.816,0,0,1,6.755-3.725C386.349,264.529,389.8,267.694,389.8,271.582Z" transform="translate(-853.76 -1522.258)" fill="none" stroke="#6d6e71" stroke-linecap="round" stroke-linejoin="round" stroke-width="2"/>
      <line id="Line_82" data-name="Line 82" y2="3.329" transform="translate(-471.666 -1264.88)" fill="none" stroke="#6d6e71" stroke-linecap="round" stroke-linejoin="round" stroke-width="2"/>
      <line id="Line_83" data-name="Line 83" x2="2.576" y2="2.355" transform="translate(-482.638 -1260.721)" fill="none" stroke="#6d6e71" stroke-linecap="round" stroke-linejoin="round" stroke-width="2"/>
      <line id="Line_84" data-name="Line 84" x2="2.576" y2="2.355" transform="translate(-461.978 -1243.429)" fill="none" stroke="#6d6e71" stroke-linecap="round" stroke-linejoin="round" stroke-width="2"/>
      <line id="Line_85" data-name="Line 85" x2="3.638" transform="translate(-459.778 -1250.676)" fill="none" stroke="#6d6e71" stroke-linecap="round" stroke-linejoin="round" stroke-width="2"/>
      <line id="Line_86" data-name="Line 86" y1="2.355" x2="2.576" transform="translate(-463.261 -1260.721)" fill="none" stroke="#6d6e71" stroke-linecap="round" stroke-linejoin="round" stroke-width="2"/>
    </g>
  </g>
</svg>
