<svg xmlns="http://www.w3.org/2000/svg" width="48" height="48.387" viewBox="0 0 48 48.387">
  <g id="ic_weather_29" transform="translate(672 783)">
    <rect id="Rectangle_7" data-name="Rectangle 7" width="48" height="48" transform="translate(-672 -783)" fill="#ffd2d2" opacity="0"/>
    <g id="Group_45" data-name="Group 45" transform="translate(30.5 -10.89)">
      <path id="Path_157" data-name="Path 157" d="M189.564,777.108c0,4.273-3.841,7.75-8.451,7.75H159.861a8.451,8.451,0,0,1-8.384-7.279,7.586,7.586,0,0,1-.077-1.133,8.441,8.441,0,0,1,8.461-8.4,8.334,8.334,0,0,1,3.467.739c.3-4.033,3.976-7.212,8.441-7.212a8.911,8.911,0,0,1,3.2.586,7.769,7.769,0,0,1,5.253,7.164v.1a8.553,8.553,0,0,1,.874,0,8.912,8.912,0,0,1,5.263,1.681,7.683,7.683,0,0,1,1.527,1.45,7.3,7.3,0,0,1,1.681,4.562Z" transform="translate(-852.9 -1522.424)" fill="none" stroke="#6d6e71" stroke-linecap="round" stroke-linejoin="round" stroke-width="2"/>
      <path id="Path_158" data-name="Path 158" d="M190.4,765.328a6.809,6.809,0,0,1-3.035,5.589,8.912,8.912,0,0,0-5.263-1.681,8.553,8.553,0,0,0-.874,0v-.1a7.769,7.769,0,0,0-5.253-7.164,7.779,7.779,0,0,1,6.722-3.707C186.937,758.308,190.4,761.449,190.4,765.328Z" transform="translate(-853.875 -1522.293)" fill="none" stroke="#6d6e71" stroke-linecap="round" stroke-linejoin="round" stroke-width="2"/>
      <line id="Line_225" data-name="Line 225" y2="3.313" transform="translate(-671.163 -771.11)" fill="none" stroke="#6d6e71" stroke-linecap="round" stroke-linejoin="round" stroke-width="2"/>
      <line id="Line_226" data-name="Line 226" x2="2.564" y2="2.343" transform="translate(-682.091 -766.971)" fill="none" stroke="#6d6e71" stroke-linecap="round" stroke-linejoin="round" stroke-width="2"/>
      <line id="Line_227" data-name="Line 227" x2="2.554" y2="2.343" transform="translate(-661.521 -749.762)" fill="none" stroke="#6d6e71" stroke-linecap="round" stroke-linejoin="round" stroke-width="2"/>
      <line id="Line_228" data-name="Line 228" x2="3.62" transform="translate(-659.341 -756.964)" fill="none" stroke="#6d6e71" stroke-linecap="round" stroke-linejoin="round" stroke-width="2"/>
      <line id="Line_229" data-name="Line 229" y1="2.343" x2="2.564" transform="translate(-662.808 -766.971)" fill="none" stroke="#6d6e71" stroke-linecap="round" stroke-linejoin="round" stroke-width="2"/>
      <path id="Path_159" data-name="Path 159" d="M111.686,786.3l-3.976,5.945h4.053l-4.053,6.05" transform="translate(-800.365 -1523.405)" fill="none" stroke="#6d6e71" stroke-linecap="round" stroke-linejoin="round" stroke-width="2"/>
      <line id="Line_230" data-name="Line 230" x1="1.709" y2="2.891" transform="translate(-676.272 -737.124)" fill="none" stroke="#6d6e71" stroke-linecap="round" stroke-linejoin="round" stroke-width="2"/>
      <line id="Line_231" data-name="Line 231" x1="1.709" y2="2.9" transform="translate(-680.708 -729.633)" fill="none" stroke="#6d6e71" stroke-linecap="round" stroke-linejoin="round" stroke-width="2"/>
      <line id="Line_232" data-name="Line 232" x1="1.729" y2="2.891" transform="translate(-683.157 -734.348)" fill="none" stroke="#6d6e71" stroke-linecap="round" stroke-linejoin="round" stroke-width="2"/>
      <line id="Line_233" data-name="Line 233" x1="1.729" y2="2.881" transform="translate(-686.778 -728.308)" fill="none" stroke="#6d6e71" stroke-linecap="round" stroke-linejoin="round" stroke-width="2"/>
    </g>
  </g>
</svg>
