<svg xmlns="http://www.w3.org/2000/svg" width="48" height="48" viewBox="0 0 48 48">
  <g id="ic_weather_28" transform="translate(770 783)">
    <rect id="Rectangle_7" data-name="Rectangle 7" width="48" height="48" transform="translate(-770 -783)" fill="#ffd2d2" opacity="0"/>
    <g id="Group_44" data-name="Group 44" transform="translate(30.87 -12.18)">
      <path id="Path_149" data-name="Path 149" d="M16.76,781.53l-4.13,6.19h4.22l-4.22,6.3" transform="translate(-800 -1522)" fill="none" stroke="#6d6e71" stroke-linecap="round" stroke-linejoin="round" stroke-width="2"/>
      <line id="Line_210" data-name="Line 210" x1="1.78" y2="3.01" transform="translate(-770.32 -740.49)" fill="none" stroke="#6d6e71" stroke-linecap="round" stroke-linejoin="round" stroke-width="2"/>
      <line id="Line_211" data-name="Line 211" x1="1.78" y2="3.01" transform="translate(-774.93 -732.68)" fill="none" stroke="#6d6e71" stroke-linecap="round" stroke-linejoin="round" stroke-width="2"/>
      <line id="Line_212" data-name="Line 212" x1="1.8" y2="3" transform="translate(-777.48 -737.59)" fill="none" stroke="#6d6e71" stroke-linecap="round" stroke-linejoin="round" stroke-width="2"/>
      <line id="Line_213" data-name="Line 213" x1="1.8" y2="3" transform="translate(-781.25 -731.3)" fill="none" stroke="#6d6e71" stroke-linecap="round" stroke-linejoin="round" stroke-width="2"/>
      <path id="Path_150" data-name="Path 150" d="M95.76,773.37c0,4.45-4,8.07-8.8,8.07H64.84a8.8,8.8,0,0,1-8.73-7.58,7.71,7.71,0,0,1-.08-1.18,8.79,8.79,0,0,1,8.81-8.76,8.689,8.689,0,0,1,3.61.78c.31-4.2,4.14-7.52,8.79-7.52a9.519,9.519,0,0,1,3.33.61,8.09,8.09,0,0,1,5.48,7.46v.1a8.771,8.771,0,0,1,.91,0,9.291,9.291,0,0,1,5.48,1.76A8.142,8.142,0,0,1,94,768.57a7.621,7.621,0,0,1,1.41,2.65,7.31,7.31,0,0,1,.35,2.15Z" transform="translate(-852.9 -1522)" fill="none" stroke="#6d6e71" stroke-linecap="round" stroke-linejoin="round" stroke-width="2"/>
    </g>
  </g>
</svg>
